<svg width="40" height="40" viewBox="0 0 40 40" fill="none" xmlns="http://www.w3.org/2000/svg">
<path fill-rule="evenodd" clip-rule="evenodd" d="M20 30C25.5228 30 30 25.5228 30 20C30 14.4771 25.5228 10 20 10C14.4771 10 10 14.4771 10 20C10 25.5228 14.4771 30 20 30ZM20 26.6667C23.6818 26.6667 26.6667 23.6818 26.6667 20C26.6667 16.3181 23.6818 13.3333 20 13.3333C16.3181 13.3333 13.3333 16.3181 13.3333 20C13.3333 23.6818 16.3181 26.6667 20 26.6667Z" fill="#0F0F0F"/>
<path d="M30 8.3335C29.0795 8.3335 28.3334 9.0797 28.3334 10.0002C28.3334 10.9206 29.0795 11.6668 30 11.6668C30.9205 11.6668 31.6667 10.9206 31.6667 10.0002C31.6667 9.0797 30.9205 8.3335 30 8.3335Z" fill="#0F0F0F"/>
<path fill-rule="evenodd" clip-rule="evenodd" d="M2.75656 7.1266C1.66663 9.26572 1.66663 12.066 1.66663 17.6665V22.3332C1.66663 27.9337 1.66663 30.734 2.75656 32.873C3.71529 34.7547 5.24509 36.2845 7.12673 37.2432C9.26584 38.3332 12.0661 38.3332 17.6666 38.3332H22.3333C27.9338 38.3332 30.7341 38.3332 32.8731 37.2432C34.7548 36.2845 36.2846 34.7547 37.2433 32.873C38.3333 30.734 38.3333 27.9337 38.3333 22.3332V17.6665C38.3333 12.066 38.3333 9.26572 37.2433 7.1266C36.2846 5.24497 34.7548 3.71517 32.8731 2.75644C30.7341 1.6665 27.9338 1.6665 22.3333 1.6665H17.6666C12.0661 1.6665 9.26584 1.6665 7.12673 2.75644C5.24509 3.71517 3.71529 5.24497 2.75656 7.1266ZM22.3333 4.99984H17.6666C14.8114 4.99984 12.8704 5.00244 11.3701 5.125C9.90869 5.2444 9.16136 5.46082 8.64003 5.72645C7.38561 6.36562 6.36574 7.38549 5.72658 8.6399C5.46094 9.16124 5.24453 9.90857 5.12513 11.37C5.00256 12.8703 4.99996 14.8112 4.99996 17.6665V22.3332C4.99996 25.1885 5.00256 27.1293 5.12513 28.6297C5.24453 30.0912 5.46094 30.8385 5.72658 31.3598C6.36574 32.6142 7.38561 33.634 8.64003 34.2732C9.16136 34.5388 9.90869 34.7553 11.3701 34.8747C12.8704 34.9972 14.8114 34.9998 17.6666 34.9998H22.3333C25.1886 34.9998 27.1295 34.9972 28.6298 34.8747C30.0913 34.7553 30.8386 34.5388 31.36 34.2732C32.6143 33.634 33.6341 32.6142 34.2733 31.3598C34.539 30.8385 34.7555 30.0912 34.8748 28.6297C34.9973 27.1293 35 25.1885 35 22.3332V17.6665C35 14.8112 34.9973 12.8703 34.8748 11.37C34.7555 9.90857 34.539 9.16124 34.2733 8.6399C33.6341 7.38549 32.6143 6.36562 31.36 5.72645C30.8386 5.46082 30.0913 5.2444 28.6298 5.125C27.1295 5.00244 25.1886 4.99984 22.3333 4.99984Z" fill="#0F0F0F"/>
</svg>
