<svg width="40" height="40" viewBox="0 0 40 40" fill="none" xmlns="http://www.w3.org/2000/svg">
<path d="M10.0233 13.3436C10.2138 11.8373 12.1713 9.79023 13.7248 10.0174L13.7223 10.0149C15.2342 10.3022 16.431 12.9043 17.1058 14.0744C17.584 14.9234 17.2735 15.7835 16.8275 16.1465C16.2258 16.6314 15.285 17.3005 15.4824 17.9723C15.8333 19.1667 20 23.3333 22.0493 24.5178C22.825 24.9662 23.3875 23.7837 23.8678 23.1778C24.2168 22.7118 25.0777 22.4333 25.9247 22.8933C27.1897 23.63 28.3813 24.4862 29.4833 25.45C30.0337 25.91 30.1628 26.5898 29.7815 27.3083C29.1098 28.5738 27.1672 30.2427 25.757 29.9035C23.294 29.3113 13.3333 25.45 10.1339 14.2634C9.95395 13.7341 9.99925 13.5341 10.0233 13.3436Z" fill="#0F0F0F"/>
<path fill-rule="evenodd" clip-rule="evenodd" d="M20 38.3332C17.9606 38.3332 16.8323 38.1143 15 37.4998L11.4907 39.2545C9.27433 40.3627 6.66663 38.751 6.66663 36.273V32.4998C3.07754 29.1532 1.66663 25.2943 1.66663 19.9998C1.66663 9.87462 9.87474 1.6665 20 1.6665C30.1251 1.6665 38.3333 9.87462 38.3333 19.9998C38.3333 30.125 30.1251 38.3332 20 38.3332ZM9.99996 31.0503L8.93988 30.0618C6.15141 27.4618 4.99996 24.555 4.99996 19.9998C4.99996 11.7156 11.7157 4.99984 20 4.99984C28.2843 4.99984 35 11.7156 35 19.9998C35 28.2842 28.2843 34.9998 20 34.9998C18.3571 34.9998 17.5866 34.8515 16.0599 34.3395L14.7474 33.8993L9.99996 36.273V31.0503Z" fill="#0F0F0F"/>
</svg>
