<svg width="22" height="27" viewBox="0 0 22 27" fill="none" xmlns="http://www.w3.org/2000/svg">
<path fill-rule="evenodd" clip-rule="evenodd" d="M10.9999 13.8293L18.0705 20.9C18.4457 21.2752 18.9546 21.486 19.4852 21.486C20.0158 21.486 20.5247 21.2752 20.8999 20.9C21.2751 20.5248 21.4859 20.0159 21.4859 19.4853C21.4859 18.9547 21.2751 18.4459 20.8999 18.0707L13.8265 11L20.8985 3.92934C21.0842 3.74356 21.2315 3.52303 21.332 3.28033C21.4324 3.03764 21.4841 2.77753 21.484 2.51486C21.484 2.2522 21.4322 1.99212 21.3316 1.74947C21.231 1.50682 21.0837 1.28636 20.8979 1.10067C20.7121 0.914979 20.4916 0.7677 20.2489 0.667239C20.0062 0.566779 19.7461 0.515104 19.4834 0.515166C19.2207 0.515228 18.9607 0.567025 18.718 0.6676C18.4754 0.768175 18.2549 0.915559 18.0692 1.10134L10.9999 8.172L3.92921 1.10134C3.74481 0.91023 3.52419 0.757763 3.28023 0.652832C3.03627 0.547901 2.77386 0.492605 2.50831 0.490173C2.24275 0.487741 1.97937 0.538221 1.73353 0.638667C1.48769 0.739113 1.26432 0.887513 1.07644 1.07521C0.88857 1.26291 0.739959 1.48614 0.639282 1.73188C0.538604 1.97763 0.487876 2.24096 0.490058 2.50652C0.492239 2.77208 0.547286 3.03454 0.651988 3.2786C0.756689 3.52266 0.908948 3.74342 1.09988 3.928L8.17321 11L1.10121 18.072C0.910281 18.2566 0.758023 18.4773 0.653322 18.7214C0.54862 18.9655 0.493573 19.2279 0.491391 19.4935C0.489209 19.759 0.539937 20.0224 0.640615 20.2681C0.741293 20.5139 0.889904 20.7371 1.07778 20.9248C1.26565 21.1125 1.48902 21.2609 1.73486 21.3613C1.9807 21.4618 2.24408 21.5123 2.50964 21.5098C2.77519 21.5074 3.03761 21.4521 3.28157 21.3472C3.52552 21.2422 3.74614 21.0898 3.93055 20.8987L10.9999 13.8293Z" fill="black"/>
</svg>
